<svg width="18" height="18" xmlns="http://www.w3.org/2000/svg" xmlns:xlink="http://www.w3.org/1999/xlink"><defs><path d="M467.054 435.718c-.419.559-.919.841-1.5.841-.397 0-.715-.205-.956-.617-.245-.41-.367-.921-.367-1.534 0-.757.17-1.366.511-1.829.341-.463.763-.698 1.267-.698.437 0 .826.173 1.167.522.341.349.511.811.511 1.391a3.16 3.16 0 0 1-.633 1.924zm5.46-8.449c-1.656-1.513-3.715-2.269-6.175-2.269-2.586 0-4.79.86-6.609 2.581-1.819 1.723-2.73 3.863-2.73 6.426 0 2.457.867 4.568 2.597 6.338 1.737 1.77 4.071 2.655 7.009 2.655 1.77 0 3.508-.36 5.212-1.083.556-.235.826-.867.6-1.421a1.111 1.111 0 0 0-1.467-.595c-1.482.631-2.934.947-4.349.947-2.252 0-3.997-.68-5.234-2.041-1.234-1.359-1.853-2.956-1.853-4.789 0-1.99.663-3.65 1.986-4.982 1.319-1.33 2.945-1.998 4.871-1.998 1.775 0 3.275.547 4.498 1.641 1.222 1.095 1.833 2.472 1.833 4.131 0 1.135-.281 2.082-.84 2.835-.56.756-1.142 1.131-1.745 1.131-.326 0-.49-.173-.49-.521 0-.283.023-.614.063-.996l.69-5.585h-2.371l-.152.548c-.604-.489-1.267-.735-1.986-.735-1.14 0-2.119.452-2.93 1.351-.815.9-1.219 2.06-1.219 3.478 0 1.384.36 2.504 1.082 3.352.722.852 1.59 1.274 2.604 1.274.908 0 1.682-.378 2.327-1.13.485.723 1.2 1.083 2.144 1.083 1.39 0 2.59-.599 3.601-1.8 1.011-1.197 1.519-2.643 1.519-4.336 0-2.145-.826-3.977-2.486-5.49z" id="a"/></defs><use xlink:href="#a" opacity=".1" transform="translate(-457 -425)"/></svg>