<svg width="60" height="56" xmlns="http://www.w3.org/2000/svg" xmlns:xlink="http://www.w3.org/1999/xlink"><defs><path d="M663.158 1493.94a.995.995 0 0 0-1.21.726l-.998 3.993a.997.997 0 1 0 1.937.485l.998-3.993a.998.998 0 0 0-.727-1.21z" id="a"/><path d="M650.942 1473.95c.13 0 .259-.024.38-.075l10.98-4.543a.998.998 0 0 0-.765-1.845l-10.595 4.386-27.946-11.564v-.331a.998.998 0 0 0-1.996 0v.998c0 .404.244.769.617.922l28.943 11.977c.122.05.252.076.382.076z" id="b"/><path d="M662.814 1484.175a.997.997 0 0 0-1.337-.453c-1.895.937-5.06 2.027-9.538 2.176v-8.954a.998.998 0 0 0-1.996 0v8.945c-12.393-.395-16.392-7.903-16.967-9.152v-6.779a.998.998 0 0 0-1.996 0v6.986c0 .127.024.253.07.372.175.432 4.422 10.607 19.891 10.607 5.406 0 9.195-1.312 11.42-2.412a.996.996 0 0 0 .453-1.336z" id="c"/><path d="M665.908 1494.91a.998.998 0 0 0-.998.998v2.994a.998.998 0 1 0 1.996 0v-2.994a.998.998 0 0 0-.998-.998z" id="d"/><path d="M665.912 1491.916a.999.999 0 0 1 0-1.996.999.999 0 0 1 0 1.996zm-14.97-33.943c-1.22 0-1.997-.588-1.997-.994 0-.405.778-.993 1.997-.993 1.218 0 1.996.588 1.996.993 0 .406-.778.993-1.996.993zm28.943 1.008a.998.998 0 0 0-.998.998v.329l-11.977 4.93v-1.804l13.356-5.527a.997.997 0 0 0 .001-1.845l-28.944-11.976a.999.999 0 0 0-.763 0l-28.943 11.976a.998.998 0 0 0 0 1.845l28.943 11.976a.988.988 0 0 0 .763 0l10.466-4.33a.997.997 0 1 0-.763-1.844l-10.084 4.172-26.334-10.897 26.334-10.896 26.333 10.896-11.459 4.742-10.975-4.098c.058-.207.093-.421.093-.644 0-1.678-1.754-2.994-3.992-2.994-2.239 0-3.993 1.316-3.993 2.994 0 1.68 1.754 2.995 3.993 2.995.999 0 1.89-.273 2.583-.712l11.39 4.253v24.588a2.991 2.991 0 0 0-1.997 2.81 2.998 2.998 0 0 0 2.994 2.995 2.998 2.998 0 0 0 2.994-2.995 2.99 2.99 0 0 0-1.996-2.81v-5.665c2.866-2.163 3.893-5.043 3.938-5.17a1.01 1.01 0 0 0 .054-.327v-6.987a.998.998 0 1 0-1.996 0v6.802c-.172.423-.772 1.728-1.996 3.015v-12.38l13.355-5.496a.998.998 0 0 0 .618-.923v-.998a.998.998 0 0 0-.998-.998z" id="e"/><path d="M669.876 1494.666a.998.998 0 1 0-1.936.485l.998 3.992a.998.998 0 0 0 1.936-.485z" id="f"/></defs><g transform="translate(-621 -1444)" fill="#0089f9"><use xlink:href="#a"/><use xlink:href="#b"/><use xlink:href="#c"/><use xlink:href="#d"/><use xlink:href="#e"/><use xlink:href="#f"/></g></svg>