<svg width="56" height="56" xmlns="http://www.w3.org/2000/svg" xmlns:xlink="http://www.w3.org/1999/xlink"><defs><path d="M292.949 1493a.941.941 0 0 0 .378-.08c3.026-1.311 8.135-1.994 15.19-2.03l.685 1.366a.95.95 0 0 0 1.273.422.94.94 0 0 0 .424-1.267l-.947-1.889a.95.95 0 0 0-.85-.522c-7.728 0-13.136.716-16.533 2.188a.944.944 0 0 0 .38 1.812z" id="a"/><path d="M330.867 1482.818a.945.945 0 0 1-.934-.954c0-.526.419-.955.934-.955.515 0 .933.429.933.955a.945.945 0 0 1-.933.954zm10.266 11.455h-1.866v-4.773a.968.968 0 0 0-.274-.675l-5.607-5.734c.175-.373.28-.786.28-1.227 0-1.58-1.255-2.864-2.8-2.864-1.543 0-2.8 1.285-2.8 2.864 0 1.578 1.257 2.863 2.8 2.863.432 0 .835-.108 1.2-.286l5.334 5.454v4.378h-48.533c-1.03 0-1.867.856-1.867 1.909v2.863c0 .527.418.955.933.955a.944.944 0 0 0 .934-.955v-2.863h52.266v2.863c0 .527.418.955.934.955a.944.944 0 0 0 .933-.955v-2.863c0-1.053-.838-1.91-1.867-1.91z" id="b"/><path d="M307.444 1467.37c0-.515.424-.935.945-.935h3.778c.52 0 .944.42.944.935v.934c0 1.031-.847 1.87-1.889 1.87h-1.889a1.881 1.881 0 0 1-1.889-1.87zm9.445 0a.94.94 0 0 1 .944-.935h3.778a.94.94 0 0 1 .944.935v.934c0 1.031-.847 1.87-1.888 1.87h-1.89a1.881 1.881 0 0 1-1.888-1.87v-.934zm-16.739 4.591c.689 1.774 2.967 7.495 4.62 9.95l.149.223c1.213 1.82 3.241 4.866 10.081 4.866 6.839 0 8.868-3.046 10.081-4.866l.15-.224c1.652-2.454 3.929-8.175 4.619-9.949a2.815 2.815 0 0 0 2.15-2.722v-3.739c0-1.219-.79-2.258-1.889-2.644v-4.834c0-3.69-1.963-10.508-9.226-11.166a2.11 2.11 0 0 0-.326-1.06c-.928-1.485-3.535-1.796-5.559-1.796-16.805 0-17 15.732-17 15.891 0 .516.422.934.943.934h.001a.94.94 0 0 0 .945-.933c.002-.572.214-14.022 15.11-14.022 2.672 0 3.742.572 3.953.91.03.048.11.176-.075.541a.927.927 0 0 0 .041.91.95.95 0 0 0 .804.443c8.374 0 8.499 8.967 8.5 9.348v5.608a.94.94 0 0 0 .944.935.94.94 0 0 1 .945.935v3.74a.94.94 0 0 1-.945.934.946.946 0 0 0-.885.607c-.027.073-2.816 7.41-4.623 10.092l-.154.231c-1.132 1.7-2.683 4.026-8.504 4.026-5.823 0-7.373-2.326-8.504-4.026l-.155-.231c-1.807-2.682-4.595-10.019-4.624-10.092a.944.944 0 0 0-.884-.607.941.941 0 0 1-.944-.935v-3.739c0-.253.102-.483.268-.651.343.761 1.043 1.447 2.219 1.563l3.231 2.398a3.758 3.758 0 0 0 3.726 3.234h1.89c2.083 0 3.777-1.677 3.777-3.74 0 2.063 1.694 3.74 3.778 3.74h1.889a3.758 3.758 0 0 0 3.726-3.235l3.451-2.561a.928.928 0 0 0 .19-1.309.95.95 0 0 0-1.323-.187l-2.407 1.788a2.824 2.824 0 0 0-2.693-1.975h-3.778c-1.562 0-2.833 1.259-2.833 2.805 0-1.546-1.271-2.805-2.833-2.805h-3.778a2.825 2.825 0 0 0-2.693 1.975l-1.802-1.338c.744-1.778 1.417-4.408 1.608-6.254 2.977-.052 11.59-.412 15.42-2.779.87 3.32 3.659 6.115 3.8 6.253a.95.95 0 0 0 1.335 0 .927.927 0 0 0 0-1.322c-.035-.034-3.501-3.503-3.501-6.817a.937.937 0 0 0-.693-.901.949.949 0 0 0-1.061.42c-1.375 2.266-10.296 3.285-16.19 3.285a.94.94 0 0 0-.945.935c0 1.517-.725 4.548-1.495 6.412-.302-.179-.387-.514-.394-.803a.94.94 0 0 0-.944-.935c-1.563 0-2.834 1.258-2.834 2.804v3.74c0 1.313.917 2.418 2.15 2.721z" id="c"/><path d="M319 1478.003c0-.551-.4-1-.896-1.003-.018 0-1.627-.02-3.201-.895a.823.823 0 0 0-.805 0c-1.574.875-3.184.895-3.198.895-.497 0-.9.448-.9 1s.403 1 .9 1c.077 0 1.777-.011 3.6-.897 1.823.886 3.524.897 3.6.897.497 0 .898-.446.9-.997z" id="d"/><path d="M321.886 1489.002a.943.943 0 0 0-.839.551l-.944 1.978c-.237.496-.052 1.105.412 1.359a.89.89 0 0 0 .429.11.94.94 0 0 0 .842-.55l.68-1.428c5.162.015 9.319.428 12.365 1.228.508.134 1.018-.198 1.141-.74.125-.542-.184-1.088-.69-1.221-3.308-.87-7.793-1.322-13.396-1.287z" id="e"/><path d="M314 1490v2a1 1 0 0 0 2 0v-2a1 1 0 0 0-2 0z" id="f"/><path d="M314 1479a1 1 0 0 0 0 2h2a1 1 0 1 0 0-2z" id="g"/></defs><g transform="translate(-287 -1444)" fill="#0089f9"><use xlink:href="#a"/><use xlink:href="#b"/><use xlink:href="#c"/><use xlink:href="#d"/><use xlink:href="#e"/><use xlink:href="#f"/><use xlink:href="#g"/></g></svg>