<svg width="45" height="57" xmlns="http://www.w3.org/2000/svg" xmlns:xlink="http://www.w3.org/1999/xlink"><defs><path d="M1002.565 1467.44h-23.438a.937.937 0 1 0 0 1.875h23.438a.937.937 0 1 0 0-1.875z" id="a"/><path d="M979.128 1461.815h9.375a.937.937 0 1 0 0-1.875h-9.375a.937.937 0 1 0 0 1.875z" id="b"/><path d="M1002.565 1474.94h-23.438a.937.937 0 1 0 0 1.875h23.438a.937.937 0 1 0 0-1.875z" id="c"/><path d="M1002.565 1482.44h-23.438a.937.937 0 1 0 0 1.875h23.438a.937.937 0 1 0 0-1.875z" id="d"/><path d="M1002.565 1489.94h-23.438a.937.937 0 1 0 0 1.875h23.438a.937.937 0 1 0 0-1.875z" id="e"/><path d="M972.563 1498.385v-47.822h23.443v13.127h13.129v34.695zm-4.688-4.697v-47.813h36.563v9.924l-7.112-7.112h-26.638v45zm30-41.8l8.438 8.438 1.486 1.487h-9.924zm8.438 5.786V1444H966v51.563h4.688v4.687H1011v-37.888z" id="f"/></defs><g transform="translate(-966 -1444)" fill="#0089f9"><use xlink:href="#a"/><use xlink:href="#b"/><use xlink:href="#c"/><use xlink:href="#d"/><use xlink:href="#e"/><use xlink:href="#f"/></g></svg>