<svg width="18" height="18" xmlns="http://www.w3.org/2000/svg" xmlns:xlink="http://www.w3.org/1999/xlink"><defs><path d="M466.872 331.857h4.396a5.593 5.593 0 0 1-5.308 3.727c-2.969-.022-5.424-2.397-5.539-5.363a5.59 5.59 0 0 1 5.58-5.805c1.442 0 2.758.55 3.75 1.45a.606.606 0 0 0 .823-.004l1.615-1.519a.603.603 0 0 0 .002-.877 8.97 8.97 0 0 0-6.01-2.464c-4.963-.097-9.146 3.971-9.18 8.934a9 9 0 0 0 9 9.064 9 9 0 0 0 8.987-8.494c.007-.06.012-2.065.012-2.065h-8.128a.603.603 0 0 0-.603.603v2.21c0 .333.27.603.603.603z" id="a"/></defs><use xlink:href="#a" fill="#fff" transform="translate(-457 -321)"/></svg>