<svg xmlns="http://www.w3.org/2000/svg" viewBox="0 0 57 37.59"><g data-name="Слой 2"><g data-name="Слой 1"><path d="M14.18 22.25l-4.29-6.2H5.15v6.2H0V0h9.63a12.37 12.37 0 0 1 5.14 1 7.53 7.53 0 0 1 3.35 2.79 7.75 7.75 0 0 1 1.18 4.28 7.59 7.59 0 0 1-1.19 4.28 7.62 7.62 0 0 1-3.39 2.75l5 7.15zm-1.3-17a5.42 5.42 0 0 0-3.53-1h-4.2V12h4.2a5.42 5.42 0 0 0 3.53-1 3.57 3.57 0 0 0 1.2-2.87 3.53 3.53 0 0 0-1.2-2.93zM57 0l-7.28 22.25h-5.53l-4.9-15.07-5 15.07h-5.5L21.43 0h5.34l5 15.64L37 0h4.8l5.09 15.77L52.07 0z" fill="#201600"/><path d="M0 31.2c4.75 0 4.75 4 9.5 4s4.74-4 9.49-4 4.75 4 9.5 4 4.75-4 9.5-4 4.75 4 9.51 4 4.75-4 9.5-4" fill="none" stroke="#c3001a" stroke-miterlimit="10" stroke-width="4.78"/></g></g></svg>