<svg width="18" height="18" xmlns="http://www.w3.org/2000/svg" xmlns:xlink="http://www.w3.org/1999/xlink"><defs><path d="M470.978 500.983c-1.13 0-1.993-.864-1.993-1.993s.864-1.992 1.993-1.992c1.13 0 1.993.863 1.993 1.992 0 1.13-.864 1.993-1.993 1.993zm-1.66-5.983c-3.13 0-5.66 2.53-5.66 5.66 0 .666.134 1.332.334 1.997L457 509.65v3.33h3.33v-1.998h1.997v-1.998h1.997l2.997-2.996c.6.2 1.265.333 1.997.333 3.13 0 5.66-2.53 5.66-5.66 0-3.13-2.53-5.66-5.66-5.66z" id="a"/></defs><use xlink:href="#a" opacity=".1" transform="translate(-457 -495)"/></svg>