<svg width="30" height="18" xmlns="http://www.w3.org/2000/svg" xmlns:xlink="http://www.w3.org/1999/xlink"><defs><path d="M829.406 510.302c-3.803.24-6.944-2.9-6.705-6.718.196-3.147 2.742-5.698 5.883-5.895 3.804-.24 6.945 2.902 6.706 6.719-.203 3.14-2.749 5.692-5.884 5.894zm-.41-15.262c-5.73 0-10.927 3.14-14.761 8.238a1.19 1.19 0 0 0 0 1.42c3.834 5.104 9.03 8.244 14.76 8.244s10.927-3.14 14.761-8.239a1.19 1.19 0 0 0 0-1.419c-3.834-5.105-9.03-8.244-14.76-8.244z" id="a"/></defs><use xlink:href="#a" opacity=".1" transform="translate(-814 -495)"/></svg>