<svg id="SVGDoc" width="18" height="18" xmlns="http://www.w3.org/2000/svg" version="1.1" xmlns:xlink="http://www.w3.org/1999/xlink" xmlns:avocode="https://avocode.com/" viewBox="0 0 18 18"><defs><path d="M467.05392,435.71848c-0.4186,0.55814 -0.91871,0.84088 -1.50031,0.84088c-0.39638,0 -0.71496,-0.20563 -0.95575,-0.61689c-0.2445,-0.41126 -0.36674,-0.92166 -0.36674,-1.53488c0,-0.75643 0.1704,-1.36597 0.51121,-1.82864c0.34081,-0.46267 0.76312,-0.69768 1.26693,-0.69768c0.43713,0 0.8261,0.17259 1.16691,0.52142c0.34081,0.34884 0.51121,0.81151 0.51121,1.39168c-0.0037,0.72338 -0.21485,1.3623 -0.63346,1.92411zM472.5143,427.26928c-1.65589,-1.51285 -3.71558,-2.26928 -6.17534,-2.26928c-2.58572,0 -4.78988,0.85924 -6.60877,2.5814c-1.81889,1.72215 -2.73019,3.86291 -2.73019,6.42594c0,2.45655 0.86685,4.56794 2.59683,6.33783c1.7374,1.76989 4.07121,2.65483 7.00885,2.65483c1.77073,0 3.50813,-0.35985 5.21218,-1.08323c0.55567,-0.23501 0.8261,-0.86659 0.60013,-1.42105v0c-0.23338,-0.57283 -0.89278,-0.83721 -1.46697,-0.59486c-1.48179,0.63158 -2.93394,0.94737 -4.34904,0.94737c-2.25232,0 -3.99712,-0.67932 -5.23441,-2.04162c-1.23359,-1.35863 -1.85224,-2.95594 -1.85224,-4.78825c0,-1.99021 0.6631,-3.64994 1.9856,-4.98286c1.31879,-1.32926 2.94505,-1.99756 4.87137,-1.99756c1.77444,0 3.27475,0.54713 4.49722,1.64137c1.22247,1.09425 1.83371,2.47124 1.83371,4.13097c0,1.13464 -0.28154,2.08201 -0.84091,2.83476c-0.55938,0.75643 -1.14098,1.13097 -1.74481,1.13097c-0.32599,0 -0.48899,-0.17258 -0.48899,-0.52142c0,-0.28274 0.02223,-0.61322 0.06298,-0.9951l0.68903,-5.58507h-2.37086l-0.15188,0.54712c-0.60383,-0.48837 -1.26693,-0.73439 -1.98559,-0.73439c-1.14098,0 -2.11896,0.45165 -2.93024,1.35128c-0.81498,0.89964 -1.21877,2.05998 -1.21877,3.47736c0,1.38433 0.35934,2.50428 1.08171,3.35251c0.72237,0.8519 1.58921,1.27417 2.60424,1.27417c0.90759,0 1.68183,-0.37821 2.3264,-1.13096c0.48529,0.72337 1.20025,1.08323 2.14489,1.08323c1.38917,0 2.58942,-0.59853 3.60074,-1.79927c1.01132,-1.19706 1.51883,-2.64382 1.51883,-4.3366c0,-2.14443 -0.8261,-3.97674 -2.4857,-5.48959z" id="Path-0"/></defs><desc>Generated with Avocode.</desc><g transform="matrix(1,0,0,1,-457,-425)"><g opacity="0.1"><title>Shape</title><use xlink:href="#Path-0" fill="#000000" fill-opacity="1"/></g></g></svg>