<svg id="SVGDoc" width="60" height="56" xmlns="http://www.w3.org/2000/svg" version="1.1" xmlns:xlink="http://www.w3.org/1999/xlink" xmlns:avocode="https://avocode.com/" viewBox="0 0 60 56"><defs><path d="M663.15794,1493.94072c-0.53496,-0.13579 -1.07683,0.19158 -1.20958,0.72561l-0.998,3.99217c-0.13474,0.5359 0.19158,1.07684 0.72654,1.21064c0.08082,0.02094 0.16269,0.02994 0.24257,0.02994c0.44713,0 0.85333,-0.30245 0.96713,-0.75555l0.998,-3.99217c0.13368,-0.53497 -0.1917,-1.07684 -0.72666,-1.21064z" id="Path-0"/><path d="M650.94152,1473.95076c0.12971,0 0.25953,-0.02491 0.38129,-0.07579l10.97859,-4.54316c0.50901,-0.21064 0.75053,-0.7945 0.54,-1.30351c-0.21064,-0.51005 -0.79649,-0.74959 -1.30444,-0.54093l-10.59544,4.38538l-27.94538,-11.56339v-0.33135c0,-0.55088 -0.44713,-0.99801 -0.99801,-0.99801c-0.55088,0 -0.99813,0.44713 -0.99813,0.99801v0.99801c0,0.40421 0.24351,0.76854 0.61684,0.92223l28.94351,11.9766c0.12164,0.05088 0.25146,0.07591 0.38117,0.07591z" id="Path-1"/><path d="M662.81368,1484.1752c-0.2435,-0.49403 -0.84035,-0.69766 -1.33637,-0.45309c-1.89532,0.93719 -5.06117,2.02701 -9.53836,2.17578v-8.95356c0,-0.55088 -0.44714,-0.99801 -0.99801,-0.99801c-0.55088,0 -0.99802,0.44713 -0.99802,0.99801v8.94456c-12.39274,-0.39521 -16.39193,-7.90257 -16.9669,-9.15216v-6.77872c0,-0.55088 -0.44713,-0.99801 -0.99801,-0.99801c-0.55088,0 -0.99801,0.44713 -0.99801,0.99801v6.98632c0,0.12678 0.02398,0.25251 0.07088,0.37123c0.17368,0.43216 4.4214,10.60725 19.89017,10.60725c5.40644,0 9.19509,-1.31146 11.4207,-2.41135c0.49474,-0.24444 0.69743,-0.84222 0.45193,-1.33626z" id="Path-2"/><path d="M665.90801,1494.91c-0.55193,0 -0.99801,0.44713 -0.99801,0.99801v2.99415c0,0.55088 0.44608,0.99802 0.99801,0.99802c0.55193,0 0.99801,-0.44714 0.99801,-0.99802v-2.99415c0,-0.55088 -0.44608,-0.99801 -0.99801,-0.99801z" id="Path-3"/><path d="M665.91228,1491.91626c-0.55088,0 -0.99801,-0.44807 -0.99801,-0.99801c0,-0.54995 0.44713,-0.99802 0.99801,-0.99802c0.55088,0 0.99801,0.44807 0.99801,0.99802c0,0.54982 -0.44713,0.99801 -0.99801,0.99801zM650.94152,1457.9725c-1.2186,0 -1.99614,-0.58793 -1.99614,-0.99303c0,-0.40521 0.77743,-0.99302 1.99614,-0.99302c1.21871,0 1.99614,0.58793 1.99614,0.99302c0,0.40522 -0.77754,0.99303 -1.99614,0.99303zM679.88503,1458.98058c-0.55193,0 -0.99801,0.44714 -0.99801,0.99802v0.32935l-11.97661,4.92936v-1.80351l13.35591,-5.52725c0.37321,-0.15368 0.61684,-0.51801 0.61684,-0.92222c0,-0.40421 -0.24351,-0.76749 -0.61579,-0.92222l-28.94456,-11.9765c-0.24456,-0.10081 -0.51801,-0.10081 -0.76246,0l-28.94351,11.97661c-0.37333,0.15474 -0.61684,0.51801 -0.61684,0.92222c0,0.40421 0.24351,0.76854 0.61684,0.92223l28.94351,11.9766c0.12176,0.05088 0.25146,0.07591 0.38129,0.07591c0.12982,0 0.25953,-0.02491 0.38128,-0.07591l10.46562,-4.33052c0.51006,-0.20959 0.75158,-0.79345 0.54093,-1.30351c-0.21064,-0.50901 -0.7945,-0.74959 -1.30351,-0.54l-10.08444,4.17193l-26.33357,-10.89673l26.33357,-10.89672l26.33357,10.89672l-11.4586,4.74176l-10.97555,-4.09801c0.05789,-0.20761 0.09286,-0.42117 0.09286,-0.64375c0,-1.67871 -1.75357,-2.99415 -3.99216,-2.99415c-2.2386,0 -3.99217,1.31544 -3.99217,2.99415c0,1.67872 1.75357,2.99416 3.99217,2.99416c0.99906,0 1.89029,-0.27252 2.58292,-0.71158l11.38971,4.25275v24.58807c-1.15871,0.41415 -1.99614,1.51099 -1.99614,2.81052c0,1.65076 1.34339,2.99415 2.99415,2.99415c1.65076,0 2.99415,-1.34339 2.99415,-2.99415c0,-1.29941 -0.83731,-2.39625 -1.99614,-2.81052v-5.66492c2.86538,-2.1628 3.8924,-5.04315 3.93731,-5.17087c0.03591,-0.1048 0.05486,-0.21556 0.05486,-0.32632v-6.98631c0,-0.55088 -0.44609,-0.99802 -0.99802,-0.99802c-0.55193,0 -0.99801,0.44714 -0.99801,0.99802v6.80175c-0.17263,0.42316 -0.77251,1.7276 -1.99614,3.01509v-12.38012l13.35497,-5.49626c0.37427,-0.15368 0.61778,-0.51894 0.61778,-0.92315v-0.99802c0,-0.55099 -0.44608,-0.99813 -0.99801,-0.99813z" id="Path-4"/><path d="M669.8762,1494.66598c-0.13368,-0.53392 -0.67672,-0.86035 -1.20959,-0.72561c-0.53497,0.13368 -0.86035,0.67567 -0.72655,1.21064l0.99801,3.99216c0.11381,0.4531 0.52,0.75556 0.96714,0.75556c0.07988,0 0.16164,-0.00901 0.24257,-0.02994c0.53497,-0.13369 0.86035,-0.67474 0.72655,-1.21065z" id="Path-5"/></defs><desc>Generated with Avocode.</desc><g transform="matrix(1,0,0,1,-621,-1444)"><g><title>mortarboard</title><g><title>Shape</title><use xlink:href="#Path-0" fill="#0089f9" fill-opacity="1"/></g><g><title>Shape</title><use xlink:href="#Path-1" fill="#0089f9" fill-opacity="1"/></g><g><title>Shape</title><use xlink:href="#Path-2" fill="#0089f9" fill-opacity="1"/></g><g><title>Shape</title><use xlink:href="#Path-3" fill="#0089f9" fill-opacity="1"/></g><g><title>Shape</title><use xlink:href="#Path-4" fill="#0089f9" fill-opacity="1"/></g><g><title>Shape</title><use xlink:href="#Path-5" fill="#0089f9" fill-opacity="1"/></g></g></g></svg>