<svg id="SVGDoc" width="56" height="56" xmlns="http://www.w3.org/2000/svg" version="1.1" xmlns:xlink="http://www.w3.org/1999/xlink" xmlns:avocode="https://avocode.com/" viewBox="0 0 56 56"><defs><path d="M292.94872,1493c0.12704,0 0.25507,-0.02546 0.37844,-0.07936c3.02538,-1.3119 8.13444,-1.99469 15.19058,-2.03066l0.68474,1.36569c0.23518,0.46663 0.80522,0.65733 1.27279,0.42214c0.46846,-0.23332 0.65918,-0.8 0.4239,-1.26652l-0.94749,-1.88899c-0.16126,-0.3202 -0.48935,-0.5223 -0.84878,-0.5223c-7.72855,0 -13.13736,0.71588 -16.53361,2.18838c-0.47991,0.20874 -0.69897,0.76502 -0.49036,1.24383c0.15571,0.35528 0.5038,0.56779 0.86979,0.56779z" id="Path-0"/><path d="M330.86679,1482.81824c-0.51516,0 -0.9333,-0.42853 -0.9333,-0.9545c0,-0.52597 0.41814,-0.95451 0.9333,-0.95451c0.51516,0 0.9333,0.42854 0.9333,0.95451c0,0.52597 -0.41814,0.9545 -0.9333,0.9545zM341.1334,1494.27275h-1.8667v-4.77275c0,-0.25292 -0.09899,-0.49632 -0.27344,-0.67485l-5.60745,-5.73397c0.17544,-0.37328 0.28098,-0.78649 0.28098,-1.22755c0,-1.5788 -1.25628,-2.86363 -2.8,-2.86363c-1.54372,0 -2.80001,1.28483 -2.80001,2.86363c0,1.57879 1.25629,2.86362 2.80001,2.86362c0.43116,0 0.83442,-0.10783 1.1993,-0.28636l5.33401,5.4542v4.37766h-48.53339c-1.02955,0 -1.86671,0.85618 -1.86671,1.90912v2.86363c0,0.52686 0.41814,0.9545 0.9333,0.9545c0.51516,0 0.9333,-0.42764 0.9333,-0.9545v-2.86363h52.2668v2.86363c0,0.52686 0.41716,0.9545 0.9333,0.9545c0.51614,0 0.9333,-0.42764 0.9333,-0.9545v-2.86363c0.00011,-1.05294 -0.83803,-1.90912 -1.8666,-1.90912z" id="Path-1"/><path d="M307.44441,1467.36961c0,-0.51508 0.424,-0.93475 0.94441,-0.93475h3.77785c0.5204,0 0.9444,0.41967 0.9444,0.93475v0.93475c0,1.03104 -0.84712,1.86961 -1.88892,1.86961h-1.88882c-1.04169,0 -1.88892,-0.83846 -1.88892,-1.86961zM316.88893,1467.36961c0,-0.51508 0.42311,-0.93475 0.9444,-0.93475h3.77774c0.52129,0 0.94441,0.41967 0.94441,0.93475v0.93475c0,1.03104 -0.84712,1.86961 -1.88892,1.86961h-1.88893c-1.04169,0 -1.88893,-0.83846 -1.88893,-1.86961v-0.93475zM300.15046,1471.96131c0.68852,1.77419 2.96647,7.49508 4.61933,9.94889l0.14919,0.22336c1.21269,1.81999 3.24129,4.86644 10.08102,4.86644c6.83874,0 8.86833,-3.04645 10.08102,-4.86644l0.14919,-0.22336c1.65275,-2.45381 3.92982,-8.1747 4.61933,-9.94889c1.2335,-0.30377 2.15046,-1.40876 2.15046,-2.72209v-3.73911c0,-1.21891 -0.78957,-2.25849 -1.88893,-2.64453v-4.83379c0,-3.69058 -1.96352,-10.50791 -9.22626,-11.16606c-0.01417,-0.44124 -0.16148,-0.79639 -0.32583,-1.05908c-0.92836,-1.48532 -3.53503,-1.79665 -5.55898,-1.79665c-16.80543,0 -17,15.73244 -17,15.89139c0,0.51596 0.42212,0.93388 0.94253,0.93388h0.00188c0.5204,0 0.94252,-0.41693 0.94441,-0.93289c0.00188,-0.57204 0.21438,-14.02277 15.11107,-14.02277c2.67086,0 3.741,0.57204 3.9525,0.91043c0.02933,0.04765 0.10957,0.17571 -0.07559,0.54126c-0.14643,0.28975 -0.13038,0.63383 0.0415,0.90956c0.17288,0.27484 0.47602,0.44311 0.80374,0.44311c8.37349,0 8.499,8.96737 8.5,9.34782v5.60871c0,0.51596 0.42212,0.93475 0.94441,0.93475c0.52128,0 0.9444,0.41967 0.9444,0.93475v3.73922c0,0.51508 -0.42312,0.93475 -0.9444,0.93475c-0.39379,0 -0.74608,0.24209 -0.88498,0.60666c-0.02734,0.07383 -2.81629,7.41007 -4.62309,10.09196l-0.15484,0.2318c-1.13145,1.69948 -2.68226,4.02611 -8.50376,4.02611c-5.8225,0 -7.37231,-2.32663 -8.50376,-4.02611l-0.15484,-0.2318c-1.80669,-2.68189 -4.59565,-10.01813 -4.62398,-10.09196c-0.1379,-0.36457 -0.49019,-0.60666 -0.88398,-0.60666c-0.5204,0 -0.9444,-0.41967 -0.9444,-0.93475v-3.73911c0,-0.25338 0.10204,-0.48331 0.26817,-0.65158c0.34287,0.76189 1.04268,1.4471 2.21852,1.563l3.23188,2.39871c0.25223,1.82086 1.81721,3.23333 3.72594,3.23333h1.88893c2.08338,0 3.77774,-1.67702 3.77774,-3.7391c0,2.06208 1.69436,3.7391 3.77774,3.7391h1.88893c1.90774,0 3.47459,-1.41247 3.72583,-3.23432l3.45191,-2.56128c0.41747,-0.30946 0.50247,-0.89553 0.18892,-1.30873c-0.31266,-0.41321 -0.90478,-0.49821 -1.32226,-0.187l-2.40733,1.78734c-0.35981,-1.13949 -1.42331,-1.97422 -2.69267,-1.97422h-3.77774c-1.56209,0 -2.83333,1.25824 -2.83333,2.80436c0,-1.54612 -1.27124,-2.80436 -2.83333,-2.80436h-3.77774c-1.26836,0 -2.33186,0.83473 -2.69256,1.97422l-1.80204,-1.33765c0.74331,-1.77792 1.41667,-4.40755 1.60747,-6.25372c2.97688,-0.05236 11.58933,-0.41222 15.42086,-2.77916c0.86893,3.32031 3.65788,6.11448 3.79855,6.25284c0.36922,0.36544 0.96621,0.36544 1.33543,0c0.36922,-0.36555 0.36922,-0.95633 0,-1.32177c-0.03497,-0.03462 -3.50105,-3.50359 -3.50105,-6.81744c0,-0.41967 -0.28333,-0.78894 -0.69228,-0.90112c-0.40707,-0.11217 -0.84436,0.05981 -1.06151,0.41967c-1.37516,2.26682 -10.2954,3.28581 -16.19062,3.28581c-0.52128,0 -0.9444,0.41879 -0.9444,0.93475c0,1.5172 -0.72438,4.54777 -1.49503,6.41266c-0.30126,-0.17943 -0.38626,-0.51409 -0.39379,-0.80395c0,-0.51596 -0.42312,-0.93475 -0.94441,-0.93475c-1.56209,0 -2.83333,1.25824 -2.83333,2.80436v3.73911c-0.00022,1.31333 0.91685,2.41832 2.15024,2.72209z" id="Path-2"/><path d="M319,1478.00306c0.00095,-0.55104 -0.40051,-0.99999 -0.89647,-1.00304c-0.01709,0 -1.62648,-0.02004 -3.20076,-0.89499c-0.25294,-0.14004 -0.55176,-0.14004 -0.8047,0c-1.57427,0.87507 -3.18452,0.89499 -3.19802,0.89499c-0.4968,0 -0.90005,0.44802 -0.90005,0.99999c0,0.55197 0.40325,0.99999 0.90005,0.99999c0.07647,0 1.7768,-0.01102 3.60032,-0.89698c1.82268,0.88596 3.52384,0.89698 3.60031,0.89698c0.49607,0 0.89753,-0.44603 0.89932,-0.99694z" id="Path-3"/><path d="M321.88599,1489.00193c-0.3531,0.00201 -0.67698,0.21409 -0.83854,0.55137l-0.94421,1.97732c-0.23702,0.49682 -0.0519,1.10582 0.41174,1.35932c0.13688,0.07467 0.28428,0.11006 0.42868,0.11006c0.34369,0 0.6751,-0.20095 0.8423,-0.55043l0.68085,-1.42795c5.16125,0.01514 9.31787,0.42817 12.36396,1.22807c0.50801,0.13432 1.01791,-0.19788 1.14162,-0.73919c0.12459,-0.54226 -0.18413,-1.08866 -0.69115,-1.22192c-3.3069,-0.8696 -7.79205,-1.32204 -13.39525,-1.28665z" id="Path-4"/><path d="M314,1489.99997v2.00006c0,0.55196 0.44803,0.99997 1,0.99997c0.55197,0 1,-0.44801 1,-0.99997v-2.00006c0,-0.55196 -0.44803,-0.99997 -1,-0.99997c-0.55197,0 -1,0.44801 -1,0.99997z" id="Path-5"/><path d="M313.99997,1479c-0.55196,0 -0.99997,0.44803 -0.99997,1c0,0.55197 0.44801,1 0.99997,1h2.00006c0.55301,0 0.99997,-0.44803 0.99997,-1c0,-0.55197 -0.44696,-1 -0.99997,-1z" id="Path-6"/></defs><desc>Generated with Avocode.</desc><g transform="matrix(1,0,0,1,-287,-1444)"><g><title>professor</title><g><title>Shape</title><use xlink:href="#Path-0" fill="#0089f9" fill-opacity="1"/></g><g><title>Shape</title><use xlink:href="#Path-1" fill="#0089f9" fill-opacity="1"/></g><g><title>Shape</title><use xlink:href="#Path-2" fill="#0089f9" fill-opacity="1"/></g><g><title>Shape</title><use xlink:href="#Path-3" fill="#0089f9" fill-opacity="1"/></g><g><title>Shape</title><use xlink:href="#Path-4" fill="#0089f9" fill-opacity="1"/></g><g><title>Shape</title><use xlink:href="#Path-5" fill="#0089f9" fill-opacity="1"/></g><g><title>Shape</title><use xlink:href="#Path-6" fill="#0089f9" fill-opacity="1"/></g></g></g></svg>