<svg id="SVGDoc" width="45" height="57" xmlns="http://www.w3.org/2000/svg" version="1.1" xmlns:xlink="http://www.w3.org/1999/xlink" xmlns:avocode="https://avocode.com/" viewBox="0 0 45 57"><defs><path d="M1002.565,1467.44h-23.4375c-0.5175,0 -0.9375,0.41905 -0.9375,0.93747c0,0.51843 0.42,0.93747 0.9375,0.93747h23.4375c0.5175,0 0.9375,-0.41905 0.9375,-0.93747c0,-0.51843 -0.42,-0.93747 -0.9375,-0.93747z" id="Path-0"/><path d="M979.1275,1461.81495h9.375c0.5175,0 0.9375,-0.41905 0.9375,-0.93747c0,-0.51843 -0.42,-0.93747 -0.9375,-0.93747h-9.375c-0.5175,0 -0.9375,0.41905 -0.9375,0.93747c0,0.51843 0.42,0.93747 0.9375,0.93747z" id="Path-1"/><path d="M1002.565,1474.94h-23.4375c-0.5175,0 -0.9375,0.41905 -0.9375,0.93747c0,0.51843 0.42,0.93747 0.9375,0.93747h23.4375c0.5175,0 0.9375,-0.41905 0.9375,-0.93747c0,-0.51843 -0.42,-0.93747 -0.9375,-0.93747z" id="Path-2"/><path d="M1002.565,1482.44h-23.4375c-0.5175,0 -0.9375,0.41905 -0.9375,0.93747c0,0.51843 0.42,0.93747 0.9375,0.93747h23.4375c0.5175,0 0.9375,-0.41905 0.9375,-0.93747c0,-0.51843 -0.42,-0.93747 -0.9375,-0.93747z" id="Path-3"/><path d="M1002.565,1489.94h-23.4375c-0.5175,0 -0.9375,0.41905 -0.9375,0.93747c0,0.51843 0.42,0.93747 0.9375,0.93747h23.4375c0.5175,0 0.9375,-0.41905 0.9375,-0.93747c0,-0.51843 -0.42,-0.93747 -0.9375,-0.93747z" id="Path-4"/><path d="M972.5625,1498.385v-47.8225h23.44391v13.12775h13.12859v34.69476zM967.875,1493.6875v-47.8125h36.5625v9.92438l-7.11187,-7.11188h-26.63813v45zM997.875,1451.88813l8.4375,8.4375l1.48688,1.48687h-9.92438zM1006.3125,1457.67438v-13.67438h-40.3125v51.5625h4.6875v4.6875h40.3125v-37.88812z" id="Path-5"/></defs><desc>Generated with Avocode.</desc><g transform="matrix(1,0,0,1,-966,-1444)"><g><title>file</title><g><title>Shape</title><use xlink:href="#Path-0" fill="#0089f9" fill-opacity="1"/></g><g><title>Shape</title><use xlink:href="#Path-1" fill="#0089f9" fill-opacity="1"/></g><g><title>Shape</title><use xlink:href="#Path-2" fill="#0089f9" fill-opacity="1"/></g><g><title>Shape</title><use xlink:href="#Path-3" fill="#0089f9" fill-opacity="1"/></g><g><title>Shape</title><use xlink:href="#Path-4" fill="#0089f9" fill-opacity="1"/></g><g><title>Shape</title><use xlink:href="#Path-5" fill="#0089f9" fill-opacity="1"/></g></g></g></svg>