<svg id="SVGDoc" width="18" height="18" xmlns="http://www.w3.org/2000/svg" version="1.1" xmlns:xlink="http://www.w3.org/1999/xlink" xmlns:avocode="https://avocode.com/" viewBox="0 0 18 18"><defs><path d="M466.87192,331.85673h4.39598c-0.77164,2.18118 -2.8615,3.74503 -5.30816,3.72698c-2.9687,-0.02192 -5.42341,-2.39636 -5.53866,-5.36235c-0.12354,-3.17932 2.42763,-5.80522 5.5806,-5.80522c1.44164,0 2.75723,0.5492 3.74905,1.44911c0.23492,0.21321 0.59252,0.21456 0.82358,-0.00288l1.61461,-1.51934c0.25248,-0.23764 0.2534,-0.63895 0.00166,-0.87739c-1.57292,-1.48987 -3.68292,-2.41852 -6.00973,-2.46394c-4.96284,-0.09688 -9.14606,3.97137 -9.18063,8.93414c-0.03487,5.00002 4.0086,9.06416 9.00146,9.06416c4.80153,0 8.72398,-3.75885 8.98672,-8.49379c0.00699,-0.05936 0.0116,-2.06565 0.0116,-2.06565h-8.12808c-0.33316,0 -0.60321,0.26999 -0.60321,0.6031v2.20997c0,0.3331 0.27011,0.6031 0.60321,0.6031z" id="Path-0"/></defs><desc>Generated with Avocode.</desc><g transform="matrix(1,0,0,1,-457,-321)"><g><title>Shape</title><use xlink:href="#Path-0" fill="#ffffff" fill-opacity="1"/></g></g></svg>