<svg xmlns="http://www.w3.org/2000/svg" viewBox="0 0 57 37.59"><defs><style>.cls-1{fill:#201600;}.cls-2{fill:none;stroke:#c3001a;stroke-miterlimit:10;stroke-width:4.78px;}</style></defs><title>Ресурс 1</title><g id="Слой_2" data-name="Слой 2"><g id="Слой_1-2" data-name="Слой 1"><path class="cls-1" d="M14.18,22.25l-4.29-6.2H5.15v6.2H0V0H9.63a12.37,12.37,0,0,1,5.14,1,7.53,7.53,0,0,1,3.35,2.79A7.75,7.75,0,0,1,19.3,8.07a7.59,7.59,0,0,1-1.19,4.28,7.62,7.62,0,0,1-3.39,2.75l5,7.15Zm-1.3-17a5.42,5.42,0,0,0-3.53-1H5.15V12h4.2a5.42,5.42,0,0,0,3.53-1,3.57,3.57,0,0,0,1.2-2.87A3.53,3.53,0,0,0,12.88,5.2Z"/><path class="cls-1" d="M57,0,49.72,22.25H44.19L39.29,7.18l-5,15.07h-5.5L21.43,0h5.34l5,15.64L37,0H41.8l5.09,15.77L52.07,0Z"/><path class="cls-2" d="M0,31.2c4.75,0,4.75,4,9.5,4s4.74-4,9.49-4,4.75,4,9.5,4,4.75-4,9.5-4,4.75,4,9.51,4,4.75-4,9.5-4"/></g></g></svg>