<svg id="SVGDoc" width="18" height="18" xmlns="http://www.w3.org/2000/svg" version="1.1" xmlns:xlink="http://www.w3.org/1999/xlink" xmlns:avocode="https://avocode.com/" viewBox="0 0 18 18"><defs><path d="M470.9781,500.98277c-1.12916,0 -1.9926,-0.86344 -1.9926,-1.9926c0,-1.12915 0.86344,-1.99259 1.9926,-1.99259c1.12915,0 1.99259,0.86344 1.99259,1.99259c0,1.12916 -0.86344,1.9926 -1.99259,1.9926zM469.31841,495c-3.12953,0 -5.6598,2.53027 -5.6598,5.6598c0,0.66586 0.13317,1.33172 0.33291,1.99758l-6.99152,6.99156v3.3293h3.3293v-1.99758h1.99759v-1.99758h1.99758l2.99635,-2.99636c0.5993,0.19974 1.26516,0.33291 1.99759,0.33291c3.12956,0 5.6598,-2.53027 5.6598,-5.6598c0,-3.12952 -2.53024,-5.65983 -5.6598,-5.65983z" id="Path-0"/></defs><desc>Generated with Avocode.</desc><g transform="matrix(1,0,0,1,-457,-495)"><g opacity="0.1"><title>Shape</title><use xlink:href="#Path-0" fill="#000000" fill-opacity="1"/></g></g></svg>