<svg id="SVGDoc" width="30" height="18" xmlns="http://www.w3.org/2000/svg" version="1.1" xmlns:xlink="http://www.w3.org/1999/xlink" xmlns:avocode="https://avocode.com/" viewBox="0 0 30 18"><defs><path d="M829.40644,510.30244c-3.80368,0.23973 -6.94478,-2.90127 -6.70552,-6.71842c0.19632,-3.14715 2.74233,-5.69806 5.88344,-5.89476c3.80368,-0.23972 6.94478,2.90128 6.70552,6.71843c-0.20246,3.141 -2.74847,5.69191 -5.88344,5.89475zM828.9954,495.04c-5.73006,0 -10.92638,3.13925 -14.76074,8.23823c-0.31288,0.41774 -0.31288,1.00136 0,1.41911c3.83436,5.10512 9.03068,8.24437 14.76074,8.24437c5.73006,0 10.92638,-3.13925 14.76073,-8.23823c0.31289,-0.41775 0.31289,-1.00136 0,-1.41911c-3.83435,-5.10512 -9.03067,-8.24437 -14.76073,-8.24437z" id="Path-0"/></defs><desc>Generated with Avocode.</desc><g transform="matrix(1,0,0,1,-814,-495)"><g opacity="0.1"><title>Shape</title><use xlink:href="#Path-0" fill="#000000" fill-opacity="1"/></g></g></svg>